<svg width="76" height="22" viewBox="0 0 62 18" fill="none" xmlns="http://www.w3.org/2000/svg">
    <path fill-rule="evenodd" clip-rule="evenodd"
        d="M12 0.5H8V4.5H4H0V8.5V12.5V16.5H4H8V12.5H12H16V8.5V4.5V0.5H12ZM4 12.5H8V8.5H12V4.5H8V8.5H4V12.5Z"
        fill="white" />
    <path
        d="M33.088 10.76C33.088 11.448 32.9067 12.056 32.544 12.584C32.1867 13.112 31.672 13.5253 31 13.824C30.328 14.1227 29.52 14.272 28.576 14.272C27.5307 14.272 26.6533 14.12 25.944 13.816C25.24 13.5067 24.656 13.1253 24.192 12.672L25.52 11.2C25.9307 11.5573 26.384 11.8347 26.88 12.032C27.376 12.224 27.92 12.32 28.512 12.32C28.88 12.32 29.2027 12.2667 29.48 12.16C29.7573 12.0533 29.9733 11.8987 30.128 11.696C30.2827 11.4933 30.36 11.248 30.36 10.96C30.36 10.688 30.2987 10.4587 30.176 10.272C30.0533 10.0853 29.8453 9.91733 29.552 9.768C29.264 9.61867 28.8613 9.46667 28.344 9.312C27.48 9.04533 26.784 8.752 26.256 8.432C25.7333 8.112 25.352 7.74133 25.112 7.32C24.8773 6.89867 24.76 6.408 24.76 5.848C24.76 5.17067 24.9467 4.592 25.32 4.112C25.6987 3.632 26.2053 3.26667 26.84 3.016C27.4747 2.76 28.1733 2.632 28.936 2.632C29.7947 2.632 30.552 2.75733 31.208 3.008C31.864 3.25333 32.432 3.60533 32.912 4.064L31.672 5.488C31.2987 5.17333 30.896 4.94133 30.464 4.792C30.032 4.63733 29.592 4.56 29.144 4.56C28.8133 4.56 28.5227 4.60267 28.272 4.688C28.0213 4.768 27.8267 4.888 27.688 5.048C27.5493 5.208 27.48 5.408 27.48 5.648C27.48 5.88267 27.5467 6.08 27.68 6.24C27.8133 6.4 28.0453 6.552 28.376 6.696C28.7067 6.83467 29.1653 6.99733 29.752 7.184C30.4507 7.39733 31.048 7.65333 31.544 7.952C32.0453 8.24533 32.4267 8.616 32.688 9.064C32.9547 9.512 33.088 10.0773 33.088 10.76ZM41.8658 11.552C41.8658 11.872 41.9084 12.104 41.9938 12.248C42.0844 12.392 42.2284 12.5013 42.4258 12.576L41.9058 14.24C41.4044 14.192 40.9804 14.0827 40.6338 13.912C40.2924 13.736 40.0231 13.472 39.8258 13.12C39.5004 13.5093 39.0844 13.8 38.5778 13.992C38.0711 14.1787 37.5538 14.272 37.0258 14.272C36.1511 14.272 35.4524 14.024 34.9298 13.528C34.4124 13.0267 34.1538 12.384 34.1538 11.6C34.1538 10.6773 34.5138 9.96533 35.2338 9.464C35.9591 8.96267 36.9778 8.712 38.2898 8.712H39.4338V8.392C39.4338 7.94933 39.2898 7.62133 39.0018 7.408C38.7191 7.19467 38.3031 7.088 37.7538 7.088C37.4818 7.088 37.1324 7.128 36.7058 7.208C36.2791 7.28267 35.8524 7.392 35.4258 7.536L34.8418 5.856C35.3911 5.648 35.9618 5.49067 36.5538 5.384C37.1511 5.27733 37.6844 5.224 38.1538 5.224C39.4178 5.224 40.3511 5.48267 40.9538 6C41.5618 6.512 41.8658 7.25333 41.8658 8.224V11.552ZM37.8978 12.464C38.1698 12.464 38.4551 12.384 38.7538 12.224C39.0524 12.0587 39.2791 11.8267 39.4338 11.528V10.152H38.8098C38.1058 10.152 37.5884 10.2613 37.2578 10.48C36.9271 10.6933 36.7618 11.008 36.7618 11.424C36.7618 11.7493 36.8604 12.0053 37.0578 12.192C37.2604 12.3733 37.5404 12.464 37.8978 12.464ZM50.5875 5.224C50.9928 5.224 51.3262 5.30933 51.5875 5.48C51.8488 5.65067 52.0435 5.92 52.1715 6.288C52.2995 6.65067 52.3635 7.12533 52.3635 7.712V14H50.1955V8C50.1955 7.70133 50.1662 7.49067 50.1075 7.368C50.0542 7.24533 49.9422 7.184 49.7715 7.184C49.6382 7.184 49.4995 7.224 49.3555 7.304C49.2168 7.37867 49.0622 7.52267 48.8915 7.736V14H47.1155V8C47.1155 7.70133 47.0862 7.49067 47.0275 7.368C46.9742 7.24533 46.8622 7.184 46.6915 7.184C46.5582 7.184 46.4195 7.224 46.2755 7.304C46.1368 7.37867 45.9822 7.52267 45.8115 7.736V14H43.6115V5.504H45.4675L45.6355 6.328C45.9022 5.96533 46.1715 5.69067 46.4435 5.504C46.7155 5.31733 47.0382 5.224 47.4115 5.224C47.7315 5.224 48.0035 5.30667 48.2275 5.472C48.4568 5.632 48.6195 5.88533 48.7155 6.232C48.9715 5.93333 49.2542 5.69067 49.5635 5.504C49.8728 5.31733 50.2142 5.224 50.5875 5.224ZM61.9333 5.504L59.1013 14C58.8506 14.752 58.5173 15.3813 58.1013 15.888C57.6906 16.4 57.1759 16.7947 56.5573 17.072C55.9439 17.3493 55.2053 17.512 54.3413 17.56L54.0533 15.776C54.6133 15.7067 55.0639 15.6027 55.4053 15.464C55.7519 15.3253 56.0293 15.136 56.2373 14.896C56.4506 14.6613 56.6346 14.3627 56.7893 14H55.9253L53.2293 5.504H55.9013L57.5493 12.384L59.3413 5.504H61.9333Z"
        fill="white" />
</svg>